<svg width="86" height="86" viewBox="0 0 86 86" fill="none" xmlns="http://www.w3.org/2000/svg">
<path d="M70.1306 1.22431L66.3236 5.03125H61.2812C60.9083 5.03127 60.5506 5.17943 60.2869 5.44315C60.0232 5.70687 59.875 6.06454 59.875 6.4375V11.4799L55.0736 16.2812H50.0312C49.6583 16.2813 49.3006 16.4294 49.0369 16.6932C48.7732 16.9569 48.625 17.3145 48.625 17.6875V22.7299L43.8236 27.5312H38.7812C38.4083 27.5313 38.0506 27.6794 37.7869 27.9432C37.5232 28.2069 37.375 28.5645 37.375 28.9375V33.9799L31.1676 40.1875H26.3595C26.7484 37.8622 27.622 35.6446 28.9235 33.6788C30.2251 31.713 31.9255 30.0429 33.9145 28.777L32.398 26.4084C28.8102 28.7016 26.0624 32.0962 24.5669 36.083C23.0713 40.0698 22.9085 44.434 24.1029 48.5212C25.2974 52.6083 27.7846 56.1981 31.1916 58.7523C34.5987 61.3064 38.7419 62.6871 43 62.6875H61.062C56.1326 67.2076 49.6881 69.7163 43 69.7188C28.2672 69.7188 16.2812 57.7328 16.2812 43H13.4688C13.468 45.3693 13.7527 47.7301 14.3168 50.0312H3.625V35.9688H14.875C15.1531 35.9687 15.425 35.8863 15.6562 35.7317C15.8875 35.5772 16.0677 35.3576 16.1741 35.1007L18.4456 29.6169C18.552 29.36 18.5799 29.0772 18.5257 28.8044C18.4714 28.5316 18.3375 28.281 18.1409 28.0843L10.1857 20.1296L20.1296 10.1857L28.0843 18.1409C28.281 18.3376 28.5316 18.4715 28.8044 18.5258C29.0772 18.58 29.36 18.5521 29.6169 18.4456L35.1007 16.1741C35.3576 16.0677 35.5772 15.8875 35.7317 15.6562C35.8863 15.425 35.9687 15.1531 35.9688 14.875V3.625H50.0312V12.0625H52.8438V2.21875C52.8437 1.84579 52.6956 1.48812 52.4318 1.2244C52.1681 0.960682 51.8105 0.812518 51.4375 0.8125H34.5625C34.1895 0.812518 33.8319 0.960682 33.5682 1.2244C33.3044 1.48812 33.1563 1.84579 33.1562 2.21875V13.9353L29.4087 15.4876L21.124 7.20259C20.8602 6.93891 20.5025 6.79078 20.1296 6.79078C19.7566 6.79078 19.3989 6.93891 19.1351 7.20259L7.20259 19.1351C6.93891 19.3989 6.79078 19.7566 6.79078 20.1296C6.79078 20.5025 6.93891 20.8602 7.20259 21.124L15.4877 29.4087L13.9353 33.1562H2.21875C1.84579 33.1563 1.48812 33.3044 1.2244 33.5682C0.960682 33.8319 0.812518 34.1895 0.8125 34.5625V51.4375C0.812518 51.8105 0.960682 52.1681 1.2244 52.4318C1.48812 52.6956 1.84579 52.8437 2.21875 52.8438H13.9353L15.4876 56.5913L7.20259 64.876C6.93891 65.1398 6.79078 65.4975 6.79078 65.8704C6.79078 66.2434 6.93891 66.6011 7.20259 66.8649L19.1351 78.7974C19.3989 79.0611 19.7566 79.2092 20.1296 79.2092C20.5025 79.2092 20.8602 79.0611 21.124 78.7974L29.4087 70.5123L33.1562 72.0647V83.7812C33.1563 84.1542 33.3044 84.5119 33.5682 84.7756C33.8319 85.0393 34.1895 85.1875 34.5625 85.1875H51.4375C51.8105 85.1875 52.1681 85.0393 52.4318 84.7756C52.6956 84.5119 52.8437 84.1542 52.8438 83.7812V72.0647L56.5913 70.5123L64.876 78.7974C65.1398 79.0611 65.4975 79.2092 65.8704 79.2092C66.2434 79.2092 66.6011 79.0611 66.8649 78.7974L78.7974 66.8649C79.0611 66.6011 79.2093 66.2434 79.2092 65.8704C79.2092 65.4974 79.061 65.1397 78.7972 64.876L76.6087 62.6875H83.7812C84.1542 62.6875 84.5119 62.5393 84.7756 62.2756C85.0393 62.0119 85.1875 61.6542 85.1875 61.2812V13.4688C85.1875 13.0958 85.0393 12.7381 84.7756 12.4744C84.5119 12.2107 84.1542 12.0625 83.7812 12.0625H72.5312C72.1583 12.0625 71.8006 12.2107 71.5369 12.4744C71.2732 12.7381 71.125 13.0958 71.125 13.4688V23.3125H61.2812C60.9083 23.3125 60.5506 23.4607 60.2869 23.7244C60.0232 23.9881 59.875 24.3458 59.875 24.7188V31.75H50.0312C49.6583 31.75 49.3006 31.8982 49.0369 32.1619C48.7732 32.4256 48.625 32.7833 48.625 33.1562V41.5938H38.7812C38.4083 41.5938 38.0506 41.7419 37.7869 42.0057C37.5232 42.2694 37.375 42.627 37.375 43V48.625H27.0902C26.45 46.8188 26.1235 44.9163 26.125 43H31.75C32.123 43 32.4807 42.8519 32.7444 42.5882L39.3639 35.9688H44.4062C44.7792 35.9687 45.1369 35.8206 45.4006 35.5568C45.6643 35.2931 45.8125 34.9355 45.8125 34.5625V29.5201L50.6139 24.7188H55.6562C56.0292 24.7187 56.3869 24.5706 56.6506 24.3068C56.9143 24.0431 57.0625 23.6855 57.0625 23.3125V18.2701L61.8639 13.4688H66.9062C67.2792 13.4687 67.6369 13.3206 67.9006 13.0568C68.1643 12.7931 68.3125 12.4355 68.3125 12.0625V7.02012L71.7074 3.625H85.1875V0.8125H71.125C70.752 0.81251 70.3943 0.960638 70.1306 1.22431ZM20.1296 75.8143L10.1857 65.8704L17.752 58.3045C20.2246 62.3657 23.6343 65.7754 27.6955 68.248L20.1296 75.8143ZM35.9688 82.375V71.6832C40.5881 72.8148 45.4124 72.8139 50.0312 71.6805V82.375H35.9688ZM75.8143 65.8704L65.8704 75.8143L58.3062 68.2498C60.803 66.737 63.0618 64.8626 65.009 62.6875H72.6312L75.8143 65.8704ZM73.9375 14.875H82.375V59.875H73.9375V14.875ZM62.6875 26.125H71.125V59.875H62.6875V26.125ZM51.4375 34.5625H59.875V59.875H51.4375V34.5625ZM40.1875 44.4062H48.625V59.875H43C42.0576 59.8749 41.1168 59.7961 40.1875 59.6393V44.4062ZM37.375 51.4375V58.9098C33.5897 57.5615 30.4059 54.9136 28.3903 51.4375H37.375ZM43 33.1562H40.1875V30.3438H43V33.1562ZM54.25 21.9062H51.4375V19.0938H54.25V21.9062ZM65.5 10.6562H62.6875V7.84375H65.5V10.6562Z" fill="white"/>
</svg>
