<svg width="793" height="608" viewBox="0 0 793 608" fill="none" xmlns="http://www.w3.org/2000/svg">
<path d="M680.55 423.5H682.546V381H680.55V423.5Z" fill="#6C77A1"/>
<path d="M680.55 312.5H682.546V289.5H680.55V312.5Z" fill="#6C77A1"/>
<path d="M676.342 48C679.744 48 682.546 50.8 682.546 54.2V221H680.55V56.1418C680.55 52.7737 677.767 49.9999 674.388 49.9999H98.1618C94.7828 49.9999 92 52.7737 92 56.1418V338.5H90V54.2C90 50.8 92.8016 48 96.2036 48H676.342Z" fill="#6C77A1"/>
<path d="M474.5 473.4V475.4H172V473.4H474.5Z" fill="#6C77A1"/>
<path d="M655.91 424H657.905V380H655.91V424Z" fill="#6C77A1"/>
<path d="M655.91 313.5H657.905V289.5H655.91V313.5Z" fill="#6C77A1"/>
<path d="M651.701 127C655.103 127 657.905 129.8 657.905 133.2V221H655.91V135.126C655.91 131.766 653.171 129 649.844 129H486.066C482.739 129 480 131.766 480 135.126V424H478V133.2C478 129.8 480.802 127 484.204 127H651.701Z" fill="#6C77A1"/>
<path d="M453.664 444.799H390.027C386.025 444.799 382.823 441.599 382.823 437.599V354.399C382.823 350.399 386.025 347.198 390.027 347.198H453.664C457.666 347.198 460.868 350.399 460.868 354.399V437.599C460.868 441.599 457.666 444.799 453.664 444.799ZM390.027 349.399C387.226 349.399 385.024 351.599 385.024 354.399V437.599C385.024 440.399 387.226 442.599 390.027 442.599H453.664C456.466 442.599 458.667 440.399 458.667 437.599V354.399C458.667 351.599 456.466 349.399 453.664 349.399H390.027Z" fill="#6C77A1"/>
<path d="M438.455 376.2C438.455 385.4 431.051 392.8 421.845 392.8C412.64 392.8 405.236 385.4 405.236 376.2C405.236 367 412.64 359.6 421.845 359.6C431.051 359.6 438.455 367 438.455 376.2Z" fill="#6C77A1"/>
<path d="M449.462 401.599H393.429V408.399H449.462V401.599Z" fill="#6C77A1"/>
<path opacity="0.5" d="M444.458 413H398.632V417.2H444.458V413Z" fill="#6C77A1"/>
<path opacity="0.5" d="M436.054 420.601H406.836V424.8H436.054V420.601Z" fill="#6C77A1"/>
<path opacity="0.5" d="M439.255 428.4H403.835V432.6H439.255V428.4Z" fill="#6C77A1"/>
<path d="M365.813 444.799H302.176C298.174 444.799 294.972 441.599 294.972 437.599V354.399C294.972 350.399 298.174 347.198 302.176 347.198H365.813C369.816 347.198 373.017 350.399 373.017 354.399V437.599C372.817 441.599 369.616 444.799 365.813 444.799ZM302.176 349.399C299.375 349.399 297.173 351.599 297.173 354.399V437.599C297.173 440.399 299.375 442.599 302.176 442.599H365.813C368.615 442.599 370.816 440.399 370.816 437.599V354.399C370.816 351.599 368.615 349.399 365.813 349.399H302.176Z" fill="#6C77A1"/>
<path d="M350.407 378.746C351.88 369.698 345.734 361.169 336.68 359.696C327.626 358.224 319.092 364.366 317.619 373.414C316.146 382.463 322.291 390.992 331.345 392.465C340.399 393.937 348.933 387.795 350.407 378.746Z" fill="#6C77A1"/>
<path d="M361.61 401.599H305.578V408.399H361.61V401.599Z" fill="#6C77A1"/>
<path opacity="0.5" d="M356.608 412.998H310.781V417.198H356.608V412.998Z" fill="#6C77A1"/>
<path opacity="0.5" d="M348.203 420.598H318.986V424.798H348.203V420.598Z" fill="#6C77A1"/>
<path opacity="0.5" d="M351.205 428.397H315.784V432.597H351.205V428.397Z" fill="#6C77A1"/>
<path d="M277.762 444.799H214.124C210.122 444.799 206.92 441.599 206.92 437.599V354.399C206.92 350.399 210.122 347.198 214.124 347.198H277.762C281.764 347.198 284.966 350.399 284.966 354.399V437.599C284.966 441.599 281.764 444.799 277.762 444.799ZM214.124 349.399C211.323 349.399 209.121 351.599 209.121 354.399V437.599C209.121 440.399 211.323 442.599 214.124 442.599H277.762C280.563 442.599 282.765 440.399 282.765 437.599V354.399C282.765 351.599 280.563 349.399 277.762 349.399H214.124Z" fill="#6C77A1"/>
<path d="M262.267 379.978C264.383 371.057 258.861 362.111 249.935 359.997C241.008 357.883 232.057 363.401 229.942 372.322C227.826 381.244 233.348 390.189 242.274 392.303C251.201 394.418 260.152 388.899 262.267 379.978Z" fill="#6C77A1"/>
<path d="M273.559 401.599H217.526V408.399H273.559V401.599Z" fill="#6C77A1"/>
<path opacity="0.5" d="M268.556 412.998H222.729V417.198H268.556V412.998Z" fill="#6C77A1"/>
<path opacity="0.5" d="M260.351 420.598H231.134V424.798H260.351V420.598Z" fill="#6C77A1"/>
<path opacity="0.5" d="M263.353 428.398H227.932V432.598H263.353V428.398Z" fill="#6C77A1"/>
<path fill-rule="evenodd" clip-rule="evenodd" d="M172.301 444.799H189.911C193.713 444.799 196.915 441.599 197.115 437.599V354.399C197.115 350.399 193.913 347.198 189.911 347.198H172.301V349.399H189.911C192.712 349.399 194.913 351.599 194.913 354.399V437.599C194.913 440.399 192.712 442.599 189.911 442.599H172.301V444.799ZM172.301 408.399H185.708V401.599H172.301V408.399ZM172.301 384.828C173.825 382.317 174.701 379.365 174.701 376.2C174.701 373.066 173.819 370.142 172.301 367.647V384.828Z" fill="#6C77A1"/>
<g opacity="0.5">
<path d="M172.301 432.6H175.302V428.4H172.301V432.6Z" fill="#6C77A1"/>
<path d="M172.301 417.2H180.705V413H172.301V417.2Z" fill="#6C77A1"/>
</g>
<path d="M113.866 66.7993V249.4H250.746V66.7993H113.866ZM247.544 68.9993L182.106 156.599L116.668 68.9993H247.544ZM115.867 70.9993L180.905 158.199L115.867 245.4V70.9993ZM116.868 247.4L182.306 159.799L247.744 247.4H116.868ZM248.545 245.4L183.507 158.199L248.545 70.9993V245.4Z" fill="#6C77A1"/>
<path d="M640.373 161.2H501.892V174.6H640.373V161.2Z" fill="#6C77A1"/>
<path opacity="0.5" d="M640.373 181.799H528.107V188.399H640.373V181.799Z" fill="#6C77A1"/>
<path opacity="0.5" d="M640.573 215.599H515.1V228.999H640.573V215.599Z" fill="#6C77A1"/>
<path opacity="0.5" d="M584 236H556V243H584V236Z" fill="#6C77A1"/>
<path opacity="0.5" d="M574.5 269.999H501.892V283.399H574.5V269.999Z" fill="#6C77A1"/>
<path opacity="0.5" d="M640.373 290.599H545.518V297.199H640.373V290.599Z" fill="#6C77A1"/>
<path d="M575 324H502V338H575V324Z" fill="#6C77A1"/>
<path opacity="0.5" d="M575 346H546V352H575V346Z" fill="#6C77A1"/>
<path d="M510.395 90.1978L623.061 90.1978V81.1977L510.395 81.1977V90.1978Z" fill="#6C77A1"/>
<path opacity="0.6" d="M538.696 76.3916L622.945 76.3916V69.9916L538.696 69.9916V76.3916Z" fill="#6C77A1"/>
<path d="M654.181 80.2002C654.181 85.8002 649.779 90.2003 644.175 90.2003C638.572 90.2003 634.169 85.8002 634.169 80.2002C634.169 74.6002 638.572 70.2002 644.175 70.2002C649.779 70.2002 654.181 74.6002 654.181 80.2002Z" fill="#6C77A1"/>
<path d="M444.659 250.399H349.003C345.001 250.399 341.799 247.199 341.799 243.199V224.399C341.799 220.399 345.001 217.198 349.003 217.198H444.659C448.661 217.198 451.863 220.399 451.863 224.399V243.199C451.863 247.199 448.661 250.399 444.659 250.399ZM349.003 219.198C346.201 219.198 344 221.398 344 224.198V242.998C344 245.799 346.201 247.999 349.003 247.999H444.659C447.461 247.999 449.662 245.799 449.662 242.998V224.198C449.662 221.398 447.461 219.198 444.659 219.198H349.003Z" fill="#6C77A1"/>
<path d="M435.454 229.198H356.808V238.198H435.454V229.198Z" fill="#6C77A1"/>
<path opacity="0.6" d="M450.662 157.8H302.376V163.6H450.662V157.8Z" fill="#6C77A1"/>
<path opacity="0.6" d="M450.662 168.401H302.376V174.201H450.662V168.401Z" fill="#6C77A1"/>
<path opacity="0.6" d="M450.863 178.801H336.996V184.601H450.863V178.801Z" fill="#6C77A1"/>
<path d="M403.435 127.6H288.168V146H403.435V127.6Z" fill="#6C77A1"/>
<path d="M450.662 127.6H416.643V146H450.662V127.6Z" fill="#6C77A1"/>
<g opacity="0.5">
<g opacity="0.5">
<path opacity="0.5" d="M435.854 322.199C435.654 322.199 435.654 322.199 435.454 321.999L431.852 319.399C431.652 319.399 431.652 319.199 431.652 318.999C431.652 318.799 431.652 318.599 431.852 318.599L435.454 315.999C435.654 315.799 436.054 315.799 436.254 316.199C436.454 316.399 436.454 316.799 436.054 316.999L433.052 319.199L436.054 321.399C436.254 321.599 436.254 321.799 436.254 322.199C436.054 322.199 436.054 322.199 435.854 322.199Z" fill="#6C77A1"/>
</g>
</g>
<g opacity="0.5">
<g opacity="0.5">
<path opacity="0.5" d="M453.664 322.2C453.464 322.2 453.264 322.2 453.264 322C453.064 321.8 453.064 321.4 453.464 321.2L456.466 319L453.464 316.8C453.264 316.6 453.264 316.4 453.264 316C453.464 315.8 453.664 315.8 454.065 315.8L457.667 318.4C457.867 318.4 457.867 318.6 457.867 318.8C457.867 319 457.867 319.2 457.667 319.2L454.065 321.8C453.865 322.199 453.865 322.2 453.664 322.2Z" fill="#6C77A1"/>
</g>
</g>
<path d="M447.661 317.2H440.857V321.2H447.661V317.2Z" fill="#6C77A1"/>
<path d="M263.353 283.4H189.71V290.4H263.353V283.4Z" fill="#6C77A1"/>
<path opacity="0.5" d="M242.341 295H189.71V298.4H242.341V295Z" fill="#6C77A1"/>
<path fill-rule="evenodd" clip-rule="evenodd" d="M581.139 289.6H786.659C790.061 289.6 792.862 287 792.862 283.4V227.6C792.862 224.2 790.061 221.4 786.659 221.4H581.139C577.737 221.4 574.935 224.2 574.935 227.6V283.4C574.935 286.8 577.737 289.6 581.139 289.6ZM772.651 227.6H786.059V233.2H772.651V227.6ZM607.754 281.401C593.346 281.401 581.739 269.801 581.739 255.401C581.739 241.001 593.346 229.401 607.754 229.401C622.163 229.401 633.769 241.001 633.769 255.401C633.769 269.801 622.163 281.401 607.754 281.401ZM607.754 230.401C593.946 230.401 582.739 241.601 582.739 255.401C582.739 269.201 593.946 280.401 607.754 280.401C621.562 280.401 632.769 269.201 632.769 255.401C632.769 241.601 621.562 230.401 607.754 230.401ZM628.405 260.25C631.084 248.852 624.011 237.441 612.606 234.763C601.201 232.086 589.784 239.155 587.105 250.553C584.425 261.951 591.499 273.362 602.904 276.04C614.308 278.718 625.726 271.648 628.405 260.25ZM649.778 245.601H762.445V254.6H649.778V245.601ZM734.028 259.2H649.778V265.6H734.028V259.2Z" fill="#6C77A1"/>
<path d="M786.659 379.8H581.139C578.289 379.8 575.935 377.447 575.935 374.6V318.8C575.935 315.953 578.289 313.6 581.139 313.6H786.659C789.509 313.6 791.862 315.953 791.862 318.8V374.6C791.862 377.447 789.509 379.8 786.659 379.8Z" stroke="#6C77A1" stroke-width="2"/>
<path d="M607.754 372.401C593.346 372.401 581.739 360.801 581.739 346.401C581.739 332.001 593.346 320.4 607.754 320.4C622.162 320.4 633.769 332.001 633.769 346.401C633.769 360.801 622.162 372.401 607.754 372.401ZM607.754 321.6C593.946 321.6 582.739 332.801 582.739 346.601C582.739 360.401 593.946 371.601 607.754 371.601C621.562 371.601 632.769 360.401 632.769 346.601C632.769 332.801 621.562 321.6 607.754 321.6Z" fill="#6C77A1"/>
<path d="M628.484 351.387C631.163 339.988 624.09 328.578 612.685 325.9C601.28 323.222 589.863 330.292 587.183 341.69C584.504 353.088 591.577 364.499 602.982 367.176C614.387 369.854 625.805 362.785 628.484 351.387Z" fill="#6C77A1"/>
<path d="M762.444 336.799H649.778V345.799H762.444V336.799Z" fill="#6C77A1"/>
<path opacity="0.6" d="M734.027 350.4H649.778V356.8H734.027V350.4Z" fill="#6C77A1"/>
<path opacity="0.6" d="M786.059 318.8H772.651V324.399H786.059V318.8Z" fill="#6C77A1"/>
<path opacity="0.5" d="M406.037 597.001C408.137 597.001 409.84 595.299 409.84 593.201C409.84 591.102 408.137 589.401 406.037 589.401C403.937 589.401 402.235 591.102 402.235 593.201C402.235 595.299 403.937 597.001 406.037 597.001Z" fill="#6C77A1"/>
<path d="M390.829 593.201C390.829 595.201 389.228 597.001 387.026 597.001C384.825 597.001 383.224 595.401 383.224 593.201C383.224 591.001 384.825 589.401 387.026 589.401C389.228 589.401 390.829 591.001 390.829 593.201Z" fill="#F8F8F8"/>
<path opacity="0.5" d="M368.015 597.001C370.115 597.001 371.817 595.299 371.817 593.201C371.817 591.102 370.115 589.401 368.015 589.401C365.915 589.401 364.213 591.102 364.213 593.201C364.213 595.299 365.915 597.001 368.015 597.001Z" fill="#6C77A1"/>
<path opacity="0.5" d="M352.806 593.201C352.806 595.201 351.205 597.001 349.004 597.001C347.003 597.001 345.202 595.401 345.202 593.201C345.202 591.001 346.803 589.401 349.004 589.401C351.205 589.401 352.806 591.001 352.806 593.201Z" fill="#6C77A1"/>
<path opacity="0.5" d="M333.795 593.201C333.795 595.201 332.194 597.001 329.993 597.001C327.791 597.001 326.391 595.201 326.391 593.201C326.391 591.201 327.992 589.401 330.193 589.401C332.394 589.401 333.795 591.001 333.795 593.201Z" fill="#6C77A1"/>
<path opacity="0.5" d="M314.784 593.201C314.784 595.201 313.183 597.001 310.982 597.001C308.981 597.001 307.18 595.401 307.18 593.201C307.18 591.001 308.781 589.401 310.982 589.401C313.183 589.401 314.784 591.001 314.784 593.201Z" fill="#6C77A1"/>
<path opacity="0.5" d="M292.171 597.001C294.271 597.001 295.973 595.299 295.973 593.201C295.973 591.102 294.271 589.401 292.171 589.401C290.071 589.401 288.369 591.102 288.369 593.201C288.369 595.299 290.071 597.001 292.171 597.001Z" fill="#6C77A1"/>
<path fill-rule="evenodd" clip-rule="evenodd" d="M199.517 37.9992H275.161C278.563 37.9992 281.364 35.1993 281.364 31.7993V16.9995C281.364 13.5995 278.563 10.7996 275.161 10.7996H199.517C196.115 10.7996 193.313 13.5995 193.313 16.9995V31.7993C193.313 35.1993 196.115 37.9992 199.517 37.9992ZM217.527 23.4001L212.324 19.0001C212.124 18.8001 211.524 18.8001 211.324 19.0001L206.121 23.4001H207.722C208.122 23.4001 208.522 23.8001 208.522 24.2001V28.0001C208.522 28.4001 208.922 28.8001 209.322 28.8001H214.325C214.726 28.8001 215.126 28.4001 215.126 28.0001V24.2001C215.126 23.8001 215.526 23.4001 215.926 23.4001H217.527ZM255.349 21.2H228.334V27.6H255.349V21.2ZM258.951 21.2H266.556V27.6H258.951V21.2Z" fill="#6C77A1"/>
<path d="M375.419 38.9997H299.775C295.773 38.9997 292.571 35.7998 292.571 31.7998V16.9998C292.571 12.9998 295.773 9.7998 299.775 9.7998H375.419C379.421 9.7998 382.623 12.9998 382.623 16.9998V31.7998C382.623 35.7998 379.421 38.9997 375.419 38.9997ZM299.775 11.9998C296.973 11.9998 294.772 14.1998 294.772 16.9998V31.7998C294.772 34.5998 296.973 36.7998 299.775 36.7998H375.419C378.221 36.7998 380.422 34.5998 380.422 31.7998V16.9998C380.422 14.1998 378.221 11.9998 375.419 11.9998H299.775Z" fill="#6C77A1"/>
<path d="M317.986 23.4001L312.783 19.0001C312.583 18.8001 311.982 18.8001 311.782 19.0001L306.579 23.4001H308.18C308.58 23.4001 308.98 23.8001 308.98 24.2001V28.0001C308.98 28.4001 309.381 28.8001 309.781 28.8001H314.784C315.184 28.8001 315.584 28.4001 315.584 28.0001V24.2001C315.584 23.8001 315.985 23.4001 316.385 23.4001H317.986Z" fill="#6C77A1"/>
<path d="M355.608 21.2H328.592V27.6H355.608V21.2Z" fill="#6C77A1"/>
<path d="M367.014 21.2H359.41V27.6H367.014V21.2Z" fill="#6C77A1"/>
<path d="M266.556 594.401H266.356C265.755 594.401 265.355 594.001 265.355 593.401C265.355 592.801 265.755 592.401 266.356 592.401H266.556C267.156 592.401 267.556 592.801 267.556 593.401C267.556 594.001 267.156 594.401 266.556 594.401ZM258.151 594.401C257.551 594.401 256.95 594.001 256.95 593.401C256.95 592.801 257.35 592.401 257.951 592.401H258.151C258.751 592.401 259.151 592.801 259.151 593.401C259.151 594.001 258.751 594.401 258.151 594.401ZM249.746 594.401H249.546C248.946 594.401 248.545 594.001 248.545 593.401C248.545 592.801 248.946 592.401 249.546 592.401H249.746C250.346 592.401 250.747 592.801 250.747 593.401C250.747 594.001 250.346 594.401 249.746 594.401ZM241.341 594.401C240.741 594.401 240.14 594.001 240.14 593.401C240.14 592.801 240.541 592.401 241.141 592.401H241.341C241.941 592.401 242.342 592.801 242.342 593.401C242.342 594.001 241.941 594.401 241.341 594.401ZM233.136 594.401C232.536 594.401 231.936 594.001 231.936 593.401C231.936 592.801 232.336 592.401 232.936 592.401H233.136C233.737 592.401 234.137 592.801 234.137 593.401C234.137 594.001 233.537 594.401 233.136 594.401ZM224.731 594.401H224.531C223.931 594.401 223.531 594.001 223.531 593.401C223.531 592.801 223.931 592.401 224.531 592.401H224.731C225.332 592.401 225.732 592.801 225.732 593.401C225.732 594.001 225.332 594.401 224.731 594.401ZM216.327 594.401C215.726 594.401 215.126 594.001 215.126 593.401C215.126 592.801 215.526 592.401 216.126 592.401H216.327C216.927 592.401 217.327 592.801 217.327 593.401C217.327 594.001 216.927 594.401 216.327 594.401ZM207.922 594.401H207.722C207.121 594.401 206.721 594.001 206.721 593.401C206.721 592.801 207.121 592.401 207.722 592.401H207.922C208.522 592.401 208.922 592.801 208.922 593.401C208.922 594.001 208.522 594.401 207.922 594.401ZM199.517 594.401C198.916 594.401 198.316 594.001 198.316 593.401C198.316 592.801 198.716 592.401 199.317 592.401H199.517C200.117 592.401 200.517 592.801 200.517 593.401C200.517 594.001 200.117 594.401 199.517 594.401ZM191.312 594.401C190.712 594.401 190.111 594.001 190.111 593.401C190.111 592.801 190.511 592.401 191.112 592.401H191.312C191.912 592.401 192.312 592.801 192.312 593.401C192.312 594.001 191.712 594.401 191.312 594.401ZM182.907 594.401H182.707C182.107 594.401 181.706 594.001 181.706 593.401C181.706 592.801 182.107 592.401 182.707 592.401H182.907C183.507 592.401 183.908 592.801 183.908 593.401C183.908 594.001 183.507 594.401 182.907 594.401ZM174.502 594.401C173.902 594.401 173.301 594.001 173.301 593.401C173.301 592.801 173.702 592.401 174.302 592.401H174.502C175.102 592.401 175.503 592.801 175.503 593.401C175.503 594.001 175.102 594.401 174.502 594.401ZM166.097 594.401H165.897C165.297 594.401 164.896 594.001 164.896 593.401C164.896 592.801 165.297 592.401 165.897 592.401H166.097C166.698 592.401 167.098 592.801 167.098 593.401C167.098 594.001 166.698 594.401 166.097 594.401ZM157.692 594.401H157.492C156.892 594.401 156.492 594.001 156.492 593.401C156.492 592.801 156.892 592.401 157.492 592.401H157.692C158.293 592.401 158.693 592.801 158.693 593.401C158.693 594.001 158.293 594.401 157.692 594.401ZM149.488 594.401H149.287C148.687 594.401 148.287 594.001 148.287 593.401C148.287 592.801 148.687 592.401 149.287 592.401H149.488C150.088 592.401 150.488 592.801 150.488 593.401C150.488 594.001 149.888 594.401 149.488 594.401ZM141.083 594.401H140.882C140.282 594.401 139.882 594.001 139.882 593.401C139.882 592.801 140.282 592.401 140.882 592.401H141.083C141.683 592.401 142.083 592.801 142.083 593.401C142.083 594.001 141.683 594.401 141.083 594.401ZM132.678 594.401C132.077 594.401 131.477 594.001 131.477 593.401C131.477 592.801 131.877 592.401 132.478 592.401H132.678C133.278 592.401 133.678 592.801 133.678 593.401C133.678 594.001 133.278 594.401 132.678 594.401ZM124.273 594.401H124.073C123.472 594.401 123.072 594.001 123.072 593.401C123.072 592.801 123.472 592.401 124.073 592.401H124.273C124.873 592.401 125.273 592.801 125.273 593.401C125.273 594.001 124.873 594.401 124.273 594.401ZM115.868 594.401H115.668C115.067 594.401 114.667 594.001 114.667 593.401C114.667 592.801 115.067 592.401 115.668 592.401H115.868C116.468 592.401 116.868 592.801 116.868 593.401C116.868 594.001 116.468 594.401 115.868 594.401ZM107.463 594.401H107.263C106.663 594.401 106.262 594.001 106.262 593.401C106.262 592.801 106.663 592.401 107.263 592.401H107.463C108.063 592.401 108.464 592.801 108.464 593.401C108.464 594.001 108.063 594.401 107.463 594.401ZM99.2582 594.401H99.0581C98.4577 594.401 98.0575 594.001 98.0575 593.401C98.0575 592.801 98.4577 592.401 99.0581 592.401H99.2582C99.8586 592.401 100.259 592.801 100.259 593.401C100.259 594.001 99.6584 594.401 99.2582 594.401ZM90.8533 594.401C90.2529 594.401 89.6526 594.001 89.6526 593.401C89.6526 592.801 90.0529 592.401 90.6532 592.401H90.8533C91.4536 592.401 91.8539 592.801 91.8539 593.401C91.8539 594.001 91.4536 594.401 90.8533 594.401ZM82.4484 594.401H82.2483C81.6479 594.401 81.2477 594.001 81.2477 593.401C81.2477 592.801 81.6479 592.401 82.2483 592.401H82.4484C83.0488 592.401 83.449 592.801 83.449 593.401C83.449 594.001 83.0488 594.401 82.4484 594.401ZM74.0435 594.401H73.8434C73.243 594.401 72.8428 594.001 72.8428 593.401C72.8428 592.801 73.243 592.401 73.8434 592.401H74.0435C74.6438 592.401 75.0441 592.801 75.0441 593.401C75.0441 594.001 74.6438 594.401 74.0435 594.401ZM65.6386 594.401H65.4385C64.8381 594.401 64.4379 594.001 64.4379 593.401C64.4379 592.801 64.8381 592.401 65.4385 592.401H65.6386C66.239 592.401 66.6392 592.801 66.6392 593.401C66.6392 594.001 66.239 594.401 65.6386 594.401ZM57.4338 594.401H57.2337C56.6333 594.401 56.2331 594.001 56.2331 593.401C56.2331 592.801 56.6333 592.401 57.2337 592.401H57.4338C58.0342 592.401 58.4344 592.801 58.4344 593.401C58.4344 594.001 57.8341 594.401 57.4338 594.401ZM50.0295 591.001C49.6292 591.001 49.4291 590.801 49.229 590.601L49.0289 590.401C48.6287 590.001 48.8288 589.401 49.229 589.001C49.6293 588.601 50.2296 588.801 50.6299 589.201L49.8293 589.801L50.8299 589.401C51.2302 589.801 51.0301 590.401 50.6299 590.801C50.4297 591.001 50.2296 591.001 50.0295 591.001ZM48.4286 583.001C47.8282 583.001 47.428 582.601 47.428 582.001V581.801C47.428 581.201 47.8282 580.801 48.4286 580.801C49.0289 580.801 49.4291 581.201 49.4291 581.801V582.001C49.4291 582.601 49.0289 583.001 48.4286 583.001ZM48.4286 574.601C47.8282 574.601 47.428 574.201 47.428 573.601C47.428 573.001 47.8282 572.401 48.4286 572.401C49.0289 572.401 49.4291 572.801 49.4291 573.401V573.601C49.4291 574.201 49.0289 574.601 48.4286 574.601ZM48.4286 566.401C47.8282 566.401 47.428 566.001 47.428 565.401V565.201C47.428 564.601 47.8282 564.201 48.4286 564.201C49.0289 564.201 49.4291 564.601 49.4291 565.201V565.401C49.4291 565.801 49.0289 566.401 48.4286 566.401ZM48.4286 558.001C47.8282 558.001 47.428 557.601 47.428 557.001C47.428 556.401 47.8282 555.801 48.4286 555.801C49.0289 555.801 49.4291 556.201 49.4291 556.801V557.001C49.4291 557.601 49.0289 558.001 48.4286 558.001ZM48.4286 549.601C47.8282 549.601 47.428 549.201 47.428 548.601C47.428 548.001 47.8282 547.401 48.4286 547.401C49.0289 547.401 49.4291 547.801 49.4291 548.401V548.601C49.4291 549.201 49.0289 549.601 48.4286 549.601ZM48.4286 541.201C47.8282 541.201 47.428 540.801 47.428 540.201V540.001C47.428 539.401 47.8282 539.001 48.4286 539.001C49.0289 539.001 49.4291 539.401 49.4291 540.001V540.201C49.4291 540.801 49.0289 541.201 48.4286 541.201ZM48.4286 532.801C47.8282 532.801 47.428 532.401 47.428 531.801C47.428 531.201 47.8282 530.601 48.4286 530.601C49.0289 530.601 49.4291 531.001 49.4291 531.601V531.801C49.4291 532.401 49.0289 532.801 48.4286 532.801ZM48.4286 524.601C47.8282 524.601 47.428 524.201 47.428 523.601V523.401C47.428 522.801 47.8282 522.401 48.4286 522.401C49.0289 522.401 49.4291 522.801 49.4291 523.401V523.601C49.4291 524.001 49.0289 524.601 48.4286 524.601ZM48.4286 516.201C47.8282 516.201 47.428 515.801 47.428 515.201C47.428 514.601 47.8282 514.001 48.4286 514.001C49.0289 514.001 49.4291 514.401 49.4291 515.001V515.201C49.4291 515.801 49.0289 516.201 48.4286 516.201Z" fill="#6C77A1"/>
<path d="M779.255 215.201C778.655 215.201 778.254 214.801 778.254 214.201V22.4007C778.254 18.4007 775.053 15.2007 771.05 15.2007H576.537C572.535 15.2007 569.333 18.4007 569.333 22.4007V36.4007C569.333 37.0007 568.932 37.4007 568.332 37.4007C567.732 37.4007 567.332 37.0007 567.332 36.4007V22.4007C567.332 17.4007 571.534 13.2007 576.537 13.2007H771.05C776.053 13.2007 780.256 17.4007 780.256 22.4007V214.201C780.256 214.601 779.855 215.201 779.255 215.201Z" fill="#6C77A1"/>
<path d="M83.8489 125.8H57.8337C52.8308 125.8 48.6284 121.6 48.6284 116.6V32.5996C48.6284 27.5996 52.8308 23.3997 57.8337 23.3997H184.908C185.508 23.3997 185.908 23.7997 185.908 24.3997C185.908 24.9997 185.508 25.3997 184.908 25.3997H57.8337C53.8314 25.3997 50.6296 28.5996 50.6296 32.5996V116.6C50.6296 120.6 53.8314 123.8 57.8337 123.8H83.8489C84.4493 123.8 84.8495 124.2 84.8495 124.8C84.8495 125.4 84.2491 125.8 83.8489 125.8Z" fill="#6C77A1"/>
<path opacity="0.5" d="M165.897 510.6H6.20363C2.80165 510.6 0 507.8 0 504.4V344.6C0 341.2 2.80165 338.4 6.20363 338.4H166.097C169.499 338.4 172.301 341.2 172.301 344.6V504.4C172.1 507.8 169.299 510.6 165.897 510.6Z" fill="#6C77A1"/>
<path d="M142.483 360.601H29.8174V369.601H142.483V360.601Z" fill="#6C77A1"/>
<path opacity="0.6" d="M128.075 379.801H43.8257V386.201H128.075V379.801Z" fill="#6C77A1"/>
<path opacity="0.6" d="M120.07 390H52.0305V396.4H120.07V390Z" fill="#6C77A1"/>
<path d="M150.288 454.799H21.813C17.8107 454.799 14.6089 451.599 14.6089 447.6V433.4C14.6089 429.4 17.8107 426.2 21.813 426.2H150.288C154.29 426.2 157.492 429.4 157.492 433.4V447.6C157.492 451.599 154.29 454.799 150.288 454.799ZM21.813 428.2C19.0114 428.2 16.8101 430.4 16.8101 433.2V447.4C16.8101 450.2 19.0114 452.399 21.813 452.399H150.288C153.09 452.399 155.291 450.2 155.291 447.4V433.2C155.291 430.4 153.09 428.2 150.288 428.2H21.813Z" fill="#6C77A1"/>
<path d="M129.676 436.799H42.425V444.399H129.676V436.799Z" fill="#6C77A1"/>
<path fill-rule="evenodd" clip-rule="evenodd" d="M21.8127 490.999H150.288C153.69 490.999 156.291 488.199 156.491 484.799V470.599C156.491 467.199 153.69 464.399 150.288 464.399H21.8127C18.4107 464.399 15.6091 467.199 15.6091 470.599V484.799C15.6091 488.199 18.4107 490.999 21.8127 490.999ZM58.634 473.999H113.666V481.599H58.634V473.999Z" fill="#6C77A1"/>
<path d="M754.24 606.8H480.48C477.63 606.8 475.277 604.447 475.277 601.6V428.8C475.277 425.953 477.63 423.6 480.48 423.6H754.24C757.09 423.6 759.444 425.953 759.444 428.8V601.6C759.444 604.447 757.09 606.8 754.24 606.8Z" stroke="#6C77A1" stroke-opacity="0.5" stroke-width="2"/>
<path opacity="0.5" fill-rule="evenodd" clip-rule="evenodd" d="M648.578 595.4H744.234C747.236 595.4 749.838 592.799 749.637 589.799V440.2C749.637 437.2 747.236 434.6 744.034 434.6H648.578C645.577 434.6 642.975 437 642.975 440.2V589.799C642.975 592.799 645.376 595.4 648.578 595.4ZM657.384 451.4H690.203V484.2H657.384V451.4ZM702.41 451.4H735.229V484.2H702.41V451.4ZM690.203 497.2H657.384V530H690.203V497.2ZM702.41 497.2H735.229V530H702.41V497.2ZM690.203 542.799H657.384V575.599H690.203V542.799ZM702.41 542.799H735.229V575.599H702.41V542.799Z" fill="#6C77A1"/>
<path d="M735.229 451.4H702.41V484.2H735.229V451.4Z" fill="#6C77A1" fill-opacity="0.8"/>
<path d="M735.229 497.2H702.41V530H735.229V497.2Z" fill="#465C74"/>
<path d="M690.203 542.799H657.384V575.599H690.203V542.799Z" fill="#6C77A1" fill-opacity="0.6"/>
<path opacity="0.5" d="M735.229 542.799H702.41V575.599H735.229V542.799Z" fill="#6C77A1" fill-opacity="0.6"/>
<path d="M610.156 588.401H513.7C509.697 588.401 506.496 585.201 506.496 581.201V555C506.496 551 509.697 547.8 513.7 547.8H610.156C614.158 547.8 617.36 551 617.36 555V581.201C617.36 585.201 614.158 588.401 610.156 588.401ZM513.7 549.8C510.898 549.8 508.697 552 508.697 554.8V581.201C508.697 584.001 510.898 586.201 513.7 586.201H610.156C612.958 586.201 615.159 584.001 615.159 581.201V555C615.159 552.2 612.958 550 610.156 550H513.7V549.8Z" fill="#6C77A1"/>
<path d="M528.509 568H518.503C518.102 568 517.902 568.401 517.902 568.6C517.902 569 518.303 569.2 518.503 569.2H528.308C528.709 569.2 528.909 568.8 528.909 568.6C529.109 568.401 528.909 568 528.509 568Z" fill="#6C77A1"/>
<path d="M605.354 568.001H601.151V563.801C601.151 563.401 600.751 563.201 600.551 563.201C600.351 563.201 599.95 563.601 599.95 563.801V568.001H595.748C595.348 568.001 595.147 568.401 595.147 568.601C595.147 569.001 595.548 569.201 595.748 569.201H599.95V573.401C599.95 573.801 600.351 574.001 600.551 574.001C600.751 574.001 601.151 573.601 601.151 573.401V569.201H605.354C605.754 569.201 605.954 568.801 605.954 568.601C605.954 568.401 605.754 568.001 605.354 568.001Z" fill="#6C77A1"/>
<path d="M558.526 558.801H551.122V577.401H558.526V558.801Z" fill="#6C77A1"/>
<path d="M573.135 558.801H562.528V577.401H573.135V558.801Z" fill="#6C77A1"/>
<path d="M606.154 443.199H493.488V452.199H606.154V443.199Z" fill="#6C77A1"/>
<path opacity="0.6" d="M577.737 506.2H493.488V512.599H577.737V506.2Z" fill="#6C77A1"/>
<path opacity="0.6" d="M561.127 518.999H493.488V525.399H561.127V518.999Z" fill="#6C77A1"/>
<path d="M555.924 478.6H493.488V497.199H555.924V478.6Z" fill="#6C77A1"/>
<path d="M70.241 192.599H20.0117V197.799H70.241V192.599Z" fill="#6C77A1"/>
<path d="M66.0386 182.799H20.0117V187.999H66.0386V182.799Z" fill="#6C77A1"/>
<path d="M49.429 172.799H20.0117V177.999H49.429V172.799Z" fill="#6C77A1"/>
<path d="M63.2371 162.999H20.0117V168.2H63.2371V162.999Z" fill="#6C77A1"/>
<path d="M704.804 113.588H755.033V108.388H704.804V113.588Z" fill="#6C77A1"/>
<path d="M708.909 103.85H754.936V98.6501H708.909V103.85Z" fill="#6C77A1"/>
<path d="M725.59 93.9124H755.008V88.7121H725.59V93.9124Z" fill="#6C77A1"/>
<path d="M711.828 83.9758H755.053V78.7759H711.828V83.9758Z" fill="#6C77A1"/>
<g opacity="0.5">
<g opacity="0.5">
<path opacity="0.5" d="M251.146 551.601C246.344 554.601 239.74 553.201 236.738 548.401C233.736 543.601 235.137 537.001 239.94 534.001C244.743 531.001 251.347 532.401 254.348 537.201C257.55 542.201 256.149 548.601 251.146 551.601ZM241.141 535.801C237.138 538.201 236.138 543.401 238.539 547.401C240.94 551.401 246.143 552.401 250.146 550.001C254.148 547.601 255.149 542.401 252.747 538.401C250.146 534.401 245.143 533.201 241.141 535.801Z" fill="#6C77A1"/>
<path opacity="0.5" d="M260.352 566.2C258.151 567.6 255.549 568.8 252.948 569.4L252.347 569.6L247.544 563.6C246.744 563.6 245.943 563.8 245.143 563.8L240.74 570.2L240.14 570C237.539 569.4 234.937 568.6 232.536 567.4C230.134 566.2 227.933 564.6 226.132 562.6L225.732 562.2L228.533 555C228.333 554.6 228.133 554.4 227.933 554C227.733 553.6 227.533 553.4 227.333 553L219.728 552.4L219.528 551.8C218.728 549.2 218.127 546.6 218.127 544C217.927 541.4 218.327 538.6 218.928 536L219.128 535.4L226.732 534.2C227.133 533.6 227.333 532.8 227.733 532.2L224.331 525.2L224.731 524.6C228.333 520.6 232.936 517.6 238.139 516.2L238.739 516L243.542 522C244.343 522 245.143 521.8 245.943 521.8L250.346 515.4L250.946 515.6C253.548 516.2 256.149 517 258.551 518.2C260.952 519.4 263.153 521 264.955 523L265.355 523.4L262.553 530.6C262.753 531 262.953 531.2 263.153 531.6C263.354 532 263.554 532.2 263.754 532.6L271.358 533.2L271.558 533.8C272.359 536.4 272.959 539 272.959 541.6C273.159 544.2 272.759 547 272.159 549.6L271.959 550.2L264.354 551.4C263.954 552 263.754 552.8 263.153 553.4L266.555 560.4L266.155 561C264.754 563 262.753 564.8 260.352 566.2ZM253.148 567.4C257.55 566 261.352 563.6 264.554 560.2L261.352 553.4L261.753 553C262.353 552 262.753 551.2 263.153 550.2L263.354 549.6L270.758 548.4C271.358 546.2 271.558 544 271.358 541.6C271.358 539.4 270.958 537.2 270.158 535L262.753 534.4L262.553 533.8C262.353 533.4 262.153 532.8 261.753 532.4C261.553 532 261.152 531.6 260.752 531.2L260.352 530.8L262.953 523.8C261.352 522.2 259.351 521 257.35 519.8C255.349 518.8 253.148 518 250.946 517.4L246.744 523.6H246.144C245.143 523.6 244.142 523.6 242.942 523.8H242.341L237.739 518C233.336 519.4 229.534 521.8 226.332 525.2L229.534 532L229.134 532.4C228.533 533.4 228.133 534.2 227.733 535.2L227.533 535.8L220.128 537C219.528 539.2 219.328 541.4 219.528 543.8C219.528 546 219.928 548.2 220.729 550.4L228.133 551L228.333 551.6C228.533 552 228.733 552.6 229.134 553C229.334 553.4 229.734 553.8 230.134 554.2L230.535 554.6L227.933 561.6C229.534 563.2 231.535 564.4 233.536 565.6C235.537 566.6 237.739 567.4 239.94 568L244.142 561.8H244.743C245.743 561.8 246.744 561.8 247.945 561.6H248.545L253.148 567.4Z" fill="#6C77A1"/>
</g>
</g>
<path d="M436.855 0C429.05 0 422.847 6.2 422.847 14C422.847 21.8 429.05 28 436.855 28C444.659 28 450.863 21.8 450.863 14C450.863 6.2 444.659 0 436.855 0ZM443.259 15.2H438.055V20.4C438.055 21.2 437.455 21.8 436.655 21.8C435.854 21.8 435.254 21.2 435.254 20.4V15.2H430.451C429.651 15.2 429.05 14.6 429.05 13.8C429.05 13 429.651 12.4 430.451 12.4H435.654V7.2C435.654 6.4 436.254 5.80001 437.055 5.80001C437.855 5.80001 438.456 6.4 438.456 7.2V12.4H443.659C444.459 12.4 445.06 13 445.06 13.8C444.659 14.8 444.059 15.2 443.259 15.2Z" fill="#6C77A1"/>
<path d="M454.866 602.799L447.461 593.799C448.662 592.399 449.262 590.799 449.462 588.999C449.663 586.599 449.062 584.399 447.461 582.599C444.46 578.799 438.856 578.399 435.254 581.399C431.452 584.399 431.052 589.999 434.053 593.599C436.255 596.399 439.857 597.399 443.059 596.399C443.659 596.199 444.459 595.999 445.06 595.599L452.464 604.6C452.864 605 453.465 605.199 454.065 604.999C454.265 604.999 454.465 604.799 454.665 604.799C455.266 604.399 455.466 603.399 454.866 602.799ZM436.455 591.799C434.454 589.399 434.854 585.799 437.255 583.799C437.856 583.199 438.656 582.999 439.457 582.599C441.458 581.999 443.859 582.599 445.26 584.399C446.261 585.599 446.661 586.999 446.461 588.599C446.261 590.199 445.66 591.399 444.46 592.399C442.058 594.599 438.456 594.199 436.455 591.799Z" fill="#6C77A1"/>
</svg>
