<svg width="30" height="50" viewBox="0 0 30 50" fill="none" xmlns="http://www.w3.org/2000/svg">
<path d="M15 0C9.80924e-07 0 0 9.9457 0 25C0 40.0543 9.80924e-07 50 15 50C30 50 30 40.0543 30 25C30 9.9457 30 0 15 0ZM15 47.9167C2.63562 47.9167 2.14283 41.3015 2.14283 25C2.14283 8.69854 2.63562 2.0833 15 2.0833C27.3644 2.0833 27.8572 8.69854 27.8572 25C27.8572 41.3015 27.3644 47.9167 15 47.9167Z" fill="white"/>
<path d="M15 41.6666C16.1834 41.6666 17.1428 40.7339 17.1428 39.5833C17.1428 38.4327 16.1834 37.5 15 37.5C13.8165 37.5 12.8572 38.4327 12.8572 39.5833C12.8572 40.7339 13.8165 41.6666 15 41.6666Z" fill="white"/>
</svg>
