<svg width="90" height="90" viewBox="0 0 90 90" fill="none" xmlns="http://www.w3.org/2000/svg">
<path d="M88.2422 1.80157H1.75781C0.78697 1.80157 0 2.58872 0 3.55938V21.64C0 22.6107 0.78697 23.3978 1.75781 23.3978H88.2422C89.213 23.3978 90 22.6107 90 21.64V3.55938C90 2.58872 89.213 1.80157 88.2422 1.80157ZM86.4844 19.8822H3.51561V5.31719H86.4844V19.8822Z" fill="white"/>
<path d="M82.5131 15.8894L81.0775 14.4538C81.4693 13.6789 81.678 12.818 81.678 11.9247C81.678 10.4247 81.0939 9.01426 80.0332 7.9536C77.8437 5.76425 74.2811 5.76408 72.0914 7.9536C71.0308 9.01426 70.4467 10.4247 70.4467 11.9247C70.4467 13.4246 71.0309 14.8351 72.0914 15.8955C73.1523 16.9562 74.5626 17.5403 76.0625 17.5403C76.956 17.5403 77.8168 17.3315 78.5916 16.9399L80.0272 18.3755C80.3705 18.7186 80.8204 18.8903 81.2702 18.8903C81.72 18.8903 82.17 18.7186 82.5131 18.3755C83.1995 17.689 83.1995 16.576 82.5131 15.8894ZM77.5475 13.4095C77.1509 13.8062 76.6236 14.0247 76.0625 14.0247C75.5014 14.0247 74.9742 13.8062 74.5775 13.4095C74.1809 13.0127 73.9623 12.4856 73.9623 11.9247C73.9623 11.3637 74.1809 10.8362 74.5775 10.4397C74.9869 10.0303 75.5248 9.82566 76.0625 9.82566C76.6002 9.82566 77.1381 10.0303 77.5475 10.4397C77.9441 10.8364 78.1627 11.3637 78.1627 11.9247C78.1627 12.4856 77.9442 13.0129 77.5475 13.4095Z" fill="white"/>
<path d="M62.9894 15.4391C62.9665 15.3264 62.9331 15.2156 62.8892 15.1103C62.8452 15.0047 62.7907 14.9012 62.7275 14.8062C62.6642 14.7113 62.5903 14.6199 62.5095 14.5391C62.4286 14.4582 62.339 14.3844 62.2423 14.3211C62.1474 14.2578 62.0454 14.2033 61.9382 14.1594C61.8327 14.1154 61.722 14.082 61.6095 14.0592C61.3827 14.0135 61.1489 14.0135 60.9222 14.0592C60.8097 14.082 60.6989 14.1154 60.5935 14.1594C60.488 14.2033 60.3861 14.2578 60.2911 14.3211C60.1945 14.3844 60.1048 14.4582 60.0222 14.5391C59.9413 14.6199 59.8693 14.7111 59.8042 14.8062C59.7409 14.9012 59.6865 15.0049 59.6425 15.1103C59.5986 15.2158 59.5652 15.3264 59.5423 15.4391C59.5195 15.5531 59.5089 15.6676 59.5089 15.7836C59.5089 15.8977 59.5195 16.0121 59.5423 16.1264C59.5652 16.2389 59.5986 16.3496 59.6425 16.4549C59.6865 16.5605 59.7409 16.6625 59.8042 16.759C59.8693 16.8539 59.9413 16.9453 60.0222 17.0262C60.1048 17.107 60.1945 17.181 60.2911 17.2441C60.3861 17.3074 60.488 17.3619 60.5935 17.4059C60.7007 17.4498 60.8114 17.4832 60.9222 17.5061C61.0364 17.5289 61.1525 17.5395 61.2667 17.5395C61.381 17.5395 61.497 17.5287 61.6095 17.5061C61.722 17.4834 61.8327 17.4498 61.9382 17.4059C62.0437 17.3619 62.1474 17.3074 62.2423 17.2441C62.339 17.181 62.4286 17.107 62.5095 17.0262C62.8364 16.6976 63.0245 16.2459 63.0245 15.7836C63.0245 15.6676 63.0122 15.5531 62.9894 15.4391Z" fill="white"/>
<path d="M54.6022 14.0249H18.0692C17.0984 14.0249 16.3114 14.812 16.3114 15.7827C16.3114 16.7534 17.0984 17.5405 18.0692 17.5405H54.6022C55.573 17.5405 56.36 16.7534 56.36 15.7827C56.36 14.812 55.573 14.0249 54.6022 14.0249Z" fill="white"/>
<path d="M55.3393 25.9037H1.96532C0.994489 25.9037 0.20752 26.6908 0.20752 27.6615V62.3252C0.20752 63.2961 0.994489 64.083 1.96532 64.083H55.3393C56.3102 64.083 57.0971 63.2959 57.0971 62.3252V27.6615C57.0971 26.6908 56.3102 25.9037 55.3393 25.9037ZM21.411 60.5673H6.49062L16.5391 48.933L23.8164 57.36L21.411 60.5673ZM25.8056 60.5673L29.0832 56.1972H37.6066C38.5774 56.1972 39.3644 55.41 39.3644 54.4394C39.3644 53.4687 38.5774 52.6816 37.6066 52.6816H31.7201L32.9533 51.0373H43.9904L51.1385 60.5673H25.8056ZM35.5899 47.5217L38.4718 43.6793L41.3537 47.5217H35.5899ZM53.5815 57.9654L39.878 39.6947C39.546 39.2521 39.025 38.9916 38.4718 38.9916C37.9186 38.9916 37.3976 39.2521 37.0655 39.6947L25.9755 54.4812L17.8696 45.0945C17.5358 44.708 17.0501 44.4856 16.5393 44.4856C16.0285 44.4856 15.543 44.708 15.209 45.0945L3.72313 58.3928V29.4193H53.5815V57.9654Z" fill="white"/>
<path d="M24.1958 31.4377C20.7691 31.4377 17.9814 34.2254 17.9814 37.6521C17.9814 41.0787 20.7693 43.8664 24.1958 43.8664C27.6225 43.8664 30.4102 41.0787 30.4102 37.6521C30.4102 34.2254 27.6225 31.4377 24.1958 31.4377ZM24.1958 40.351C22.7077 40.351 21.4971 39.1404 21.4971 37.6522C21.4971 36.1641 22.7078 34.9535 24.1958 34.9535C25.6838 34.9535 26.8946 36.1641 26.8946 37.6522C26.8946 39.1404 25.684 40.351 24.1958 40.351Z" fill="white"/>
<path d="M88.2421 25.9037H61.2264C60.2556 25.9037 59.4686 26.6908 59.4686 27.6615V62.3252C59.4686 63.2959 60.2556 64.083 61.2264 64.083H88.2421C89.213 64.083 90 63.2959 90 62.3252V27.6615C90 26.6908 89.213 25.9037 88.2421 25.9037ZM86.4843 60.5674H62.9842V29.4193H86.4843V60.5674Z" fill="white"/>
<path d="M82.3917 32.3146H67.077C66.1062 32.3146 65.3192 33.1018 65.3192 34.0724C65.3192 35.0431 66.1062 35.8302 67.077 35.8302H82.3917C83.3626 35.8302 84.1495 35.0431 84.1495 34.0724C84.1495 33.1018 83.3626 32.3146 82.3917 32.3146Z" fill="white"/>
<path d="M82.3917 39.3694H67.077C66.1062 39.3694 65.3192 40.1565 65.3192 41.1272C65.3192 42.0979 66.1062 42.885 67.077 42.885H82.3917C83.3626 42.885 84.1495 42.0979 84.1495 41.1272C84.1495 40.1565 83.3626 39.3694 82.3917 39.3694Z" fill="white"/>
<path d="M82.3917 46.4241H67.077C66.1062 46.4241 65.3192 47.2113 65.3192 48.1819C65.3192 49.1526 66.1062 49.9397 67.077 49.9397H82.3917C83.3626 49.9397 84.1495 49.1526 84.1495 48.1819C84.1495 47.2113 83.3626 46.4241 82.3917 46.4241Z" fill="white"/>
<path d="M68.8007 54.8929C68.7778 54.7803 68.7444 54.6695 68.7005 54.5642C68.6566 54.4586 68.6021 54.3566 68.5388 54.2601C68.4737 54.1652 68.4017 54.0738 68.3191 53.9929C67.9113 53.5851 67.3048 53.3969 66.7335 53.5131C66.621 53.5359 66.5103 53.5693 66.4048 53.6133C66.2993 53.6572 66.1974 53.7117 66.1007 53.775C66.0058 53.8383 65.9144 53.9121 65.8335 53.9929C65.7527 54.0738 65.6788 54.165 65.6156 54.2601C65.5523 54.3568 65.4978 54.4588 65.4538 54.5642C65.4099 54.6697 65.3765 54.7803 65.3536 54.8929C65.3308 55.007 65.3185 55.1215 65.3185 55.2355C65.3185 55.3515 65.3308 55.466 65.3536 55.5801C65.3765 55.6927 65.4099 55.8035 65.4538 55.9089C65.4978 56.0146 65.5523 56.1165 65.6156 56.213C65.6788 56.308 65.7527 56.3994 65.8335 56.4802C65.9144 56.5611 66.0058 56.6349 66.1007 56.6982C66.1974 56.7615 66.2993 56.816 66.4048 56.8599C66.5103 56.9039 66.621 56.9373 66.7335 56.9601C66.8478 56.983 66.962 56.9953 67.078 56.9953C67.5404 56.9953 67.9921 56.8072 68.3191 56.4801C68.3999 56.3992 68.4737 56.308 68.5388 56.2129C68.6021 56.1162 68.6566 56.0142 68.7005 55.9088C68.7444 55.8033 68.7778 55.6927 68.8007 55.5801C68.8236 55.466 68.8341 55.3515 68.8341 55.2355C68.8341 55.1215 68.8236 55.007 68.8007 54.8929Z" fill="white"/>
<path d="M82.3917 53.4787H73.7408C72.77 53.4787 71.983 54.2658 71.983 55.2365C71.983 56.2072 72.77 56.9943 73.7408 56.9943H82.3917C83.3625 56.9943 84.1495 56.2072 84.1495 55.2365C84.1495 54.2658 83.3625 53.4787 82.3917 53.4787Z" fill="white"/>
<path d="M28.981 66.5771H1.96533C0.994489 66.5771 0.20752 67.3642 0.20752 68.3349V86.4406C0.20752 87.4113 0.994489 88.1984 1.96533 88.1984H28.981C29.9519 88.1984 30.7388 87.4113 30.7388 86.4406V68.3349C30.7388 67.3642 29.9519 66.5771 28.981 66.5771ZM27.2232 84.6828H3.72313V70.0927H27.2232V84.6828Z" fill="white"/>
<path d="M88.2422 66.5771H35.1083C34.1374 66.5771 33.3505 67.3642 33.3505 68.3349V86.4406C33.3505 87.4113 34.1374 88.1984 35.1083 88.1984H88.2422C89.213 88.1984 90 87.4113 90 86.4406V68.3349C90 67.3642 89.213 66.5771 88.2422 66.5771ZM86.4844 84.6828H36.8661V70.0927H86.4844V84.6828Z" fill="white"/>
<path d="M44.8734 77.045C44.8506 76.9327 44.8172 76.8218 44.7732 76.7163C44.7293 76.6091 44.6748 76.5073 44.6115 76.4124C44.5482 76.3155 44.4744 76.2259 44.3935 76.145C44.3127 76.0642 44.223 75.9903 44.1263 75.9271C44.0314 75.864 43.9295 75.8093 43.8222 75.7653C43.7168 75.7214 43.606 75.6862 43.4935 75.6634C43.2668 75.6194 43.033 75.6194 42.8062 75.6634C42.6955 75.6862 42.5847 75.7214 42.4775 75.7653C42.372 75.8093 42.2701 75.864 42.1752 75.9271C42.0785 75.9903 41.9888 76.0642 41.908 76.145C41.8271 76.2259 41.7533 76.3155 41.6883 76.4124C41.625 76.5073 41.5705 76.6091 41.5265 76.7163C41.4826 76.822 41.4492 76.9325 41.4263 77.045C41.4035 77.1575 41.3929 77.2735 41.3929 77.3878C41.3929 77.5019 41.4035 77.6181 41.4263 77.7306C41.4492 77.8429 41.4826 77.9536 41.5265 78.0609C41.5705 78.1663 41.625 78.2683 41.6883 78.3632C41.7533 78.4599 41.8271 78.5495 41.908 78.6304C42.2349 78.9573 42.6884 79.1456 43.1508 79.1456C43.265 79.1456 43.381 79.1349 43.4935 79.1122C43.606 79.0894 43.7168 79.0542 43.8222 79.0103C43.9295 78.9663 44.0314 78.9136 44.1263 78.8485C44.223 78.7854 44.3127 78.7116 44.3935 78.6306C44.4744 78.5497 44.5482 78.4601 44.6115 78.3634C44.6748 78.2685 44.7293 78.1665 44.7732 78.061C44.8172 77.9538 44.8506 77.8431 44.8734 77.7306C44.8963 77.6179 44.9086 77.5019 44.9086 77.3878C44.9086 77.2735 44.8963 77.1574 44.8734 77.045Z" fill="white"/>
<path d="M79.3332 75.63H49.8143C48.8435 75.63 48.0565 76.4171 48.0565 77.3878C48.0565 78.3585 48.8435 79.1456 49.8143 79.1456H79.3332C80.304 79.1456 81.091 78.3585 81.091 77.3878C81.091 76.4171 80.304 75.63 79.3332 75.63Z" fill="white"/>
</svg>
