<svg width="190" height="37" viewBox="0 0 190 37" fill="none" xmlns="http://www.w3.org/2000/svg">
<path d="M25.984 21.8V28.424C23.824 29.816 21.184 30.392 18.112 30.392C11.488 30.392 6.16 24.92 6.16 18.2C6.16 11.384 11.488 5.96 18.112 5.96C20.464 5.96 21.952 6.296 23.632 6.968V1.016C21.904 0.535997 19.984 0.295998 18.064 0.295998C8.176 0.295998 0.16 8.312 0.16 18.2C0.16 28.04 8.176 36.104 18.016 36.104C23.2 36.104 27.856 34.616 31.408 31.976V16.808H18.016V21.8H25.984ZM34.7725 35H41.4925L50.3245 14.264L59.2045 35H65.8765L50.3245 0.247998L34.7725 35ZM69.9794 1.4V35H75.9794V22.136H83.6114L89.5634 35H96.2834L89.7554 20.696C92.9714 19.016 95.1794 15.656 95.1794 11.72C95.1794 6.008 90.5234 1.4 84.8114 1.4H69.9794ZM75.9794 6.68H84.0914C86.9234 6.68 89.1314 8.984 89.1314 11.72C89.1314 14.552 86.9234 16.76 84.0914 16.76H75.9794V6.68ZM98.9444 35H105.664L114.496 14.264L123.376 35H130.048L114.496 0.247998L98.9444 35ZM156.39 21.8V28.424C154.23 29.816 151.59 30.392 148.518 30.392C141.894 30.392 136.566 24.92 136.566 18.2C136.566 11.384 141.894 5.96 148.518 5.96C150.87 5.96 152.358 6.296 154.038 6.968V1.016C152.31 0.535997 150.39 0.295998 148.47 0.295998C138.582 0.295998 130.566 8.312 130.566 18.2C130.566 28.04 138.582 36.104 148.422 36.104C153.606 36.104 158.262 34.616 161.814 31.976V16.808H148.422V21.8H156.39ZM189.131 6.728V1.4H167.339V35H189.131V29.672H173.387V20.12H188.411V15.128H173.387V6.728H189.131Z" fill="url(#paint0_linear_199_2)"/>
<defs>
<linearGradient id="paint0_linear_199_2" x1="95" y1="16" x2="95.5" y2="45" gradientUnits="userSpaceOnUse">
<stop stop-color="#FFFFFB"/>
<stop offset="1" stop-color="#FFFFFB" stop-opacity="0.46"/>
</linearGradient>
</defs>
</svg>
