<svg width="88" height="89" viewBox="0 0 88 89" fill="none" xmlns="http://www.w3.org/2000/svg">
<path d="M31.3438 80.1562H34.1562V82.9688H31.3438V80.1562Z" fill="white"/>
<path d="M31.3438 74.5312H34.1562V77.3438H31.3438V74.5312Z" fill="white"/>
<path d="M35.5625 23.9062C36.3392 23.9062 36.9688 23.2767 36.9688 22.5C36.9688 21.7233 36.3392 21.0938 35.5625 21.0938C34.7858 21.0938 34.1562 21.7233 34.1562 22.5C34.1562 23.2767 34.7858 23.9062 35.5625 23.9062Z" fill="white"/>
<path d="M76.3438 52.0314H79.1562C80.7073 52.0314 81.9688 50.7699 81.9688 49.2189V41.8796L82.4356 41.7629C85.4731 41.0035 87.5938 38.2867 87.5938 35.1564C87.5938 32.026 85.4731 29.3092 82.4356 28.5498L81.9688 28.4331V21.0939C81.9688 19.5428 80.7073 18.2814 79.1562 18.2814H76.3438C74.7927 18.2814 73.5312 19.5428 73.5312 21.0939V22.2807C72.8169 24.8978 70.4572 26.7189 67.7333 26.7189H52.4375C50.1116 26.7189 48.2188 28.6117 48.2188 30.9376V39.3751C48.2188 41.32 49.5477 42.9456 51.3406 43.4307C51.1452 43.9173 51.0312 44.4446 51.0312 45.0001C51.0312 46.734 52.0845 48.226 53.5836 48.8729L51.9973 56.2754L50.4463 54.5303C46.0573 49.5915 40.438 45.9718 34.1562 43.9778V43.5489C34.3363 43.5615 34.5134 43.5939 34.6934 43.5939C39.05 43.5939 42.5938 40.0501 42.5938 35.6935V30.399L42.9397 30.226C44.4613 29.4667 45.4062 27.9381 45.4062 26.2379C45.4062 25.3548 45.1475 24.4984 44.6567 23.7629L42.83 21.0221C42.6753 20.7901 42.5938 20.5215 42.5938 20.2431V17.3181C45.9139 15.7346 48.2188 12.354 48.2188 8.4376V0.537292L42.5938 3.34979V0.537292L40.5589 1.55542C37.0742 3.29776 33.1719 4.21885 29.2738 4.21885H20.2667C16.4839 4.21885 13.1652 6.60807 11.9347 10.1223C8.42047 11.3528 6.03125 14.6715 6.03125 18.4543C6.03125 26.7287 10.0784 34.5024 16.858 39.2485L20.0938 41.514V43.9145C8.62437 46.9098 0.40625 57.4131 0.40625 69.3535V88.5939H45.4062V73.239L47.5859 74.9842C48.988 76.1049 50.6558 76.8475 52.4094 77.1653C52.4403 77.926 52.1591 78.6882 51.5966 79.2493L50.5756 80.2435L55.5594 85.2287L56.5803 86.1962L57.5759 85.202C58.3677 84.4103 59.5461 84.1754 60.5811 84.6043C61.6147 85.0332 62.2812 86.0331 62.2812 87.1876V88.5939H69.3125L70.7188 88.5559V87.1496C70.7188 86.0331 71.3853 85.0332 72.4175 84.6043C73.4483 84.174 74.6309 84.4089 75.4353 85.2146L76.4295 86.2356L81.4147 81.2504L82.3822 80.2295L81.388 79.2353C80.5963 78.4435 80.3628 77.2637 80.7903 76.2301C81.2206 75.1979 82.2205 74.5314 83.375 74.5314H84.7812V67.5001L84.7433 66.0939H83.337C82.2205 66.0939 81.2206 65.4273 80.7917 64.3951C80.3628 63.3615 80.5962 62.1817 81.4147 61.3632L82.4089 60.369L77.4364 55.3979L76.4155 54.4304L75.4212 55.4246C74.6295 56.2164 73.4511 56.4498 72.4161 56.0223C71.3853 55.592 70.7188 54.5921 70.7188 53.4756V45.0001C70.7188 44.7779 70.6864 44.5642 70.6527 44.3504C72.0378 45.1182 73.0925 46.4246 73.5312 48.0306V49.2189C73.5312 50.7699 74.7927 52.0314 76.3438 52.0314ZM84.7812 35.1564C84.7812 36.917 83.6323 38.4428 81.9688 38.9603V31.3524C83.6323 31.8699 84.7812 33.3957 84.7812 35.1564ZM76.3438 21.0939H79.1562L79.1577 49.2189H76.3438V21.0939ZM51.0312 30.9376C51.0312 30.1628 51.6627 29.5314 52.4375 29.5314H56.6562V40.7814H52.4375C51.6627 40.7814 51.0312 40.1499 51.0312 39.3751V30.9376ZM62.2812 53.4376C62.2812 54.2124 61.6498 54.8439 60.875 54.8439C60.1002 54.8439 59.4688 54.2124 59.4688 53.4376V43.5939H62.2812V53.4376ZM65.0938 63.4375C65.555 63.3432 66.0233 63.2814 66.5 63.2814C70.377 63.2814 73.5312 66.4356 73.5312 70.3126C73.5312 74.1896 70.377 77.3439 66.5 77.3439C64.4398 77.3439 62.4992 76.4157 61.1731 74.8759C63.5666 72.8973 65.0938 69.9076 65.0938 66.5678V63.4375ZM55.25 46.4064C54.4752 46.4064 53.8438 45.7749 53.8438 45.0001C53.8438 44.2253 54.4752 43.5939 55.25 43.5939C56.0248 43.5939 56.6562 44.2253 56.6562 45.0001C56.6562 45.7749 56.0248 46.4064 55.25 46.4064ZM14.4688 49.3243C15.3645 48.7717 16.3081 48.2907 17.2812 47.8604V52.2985C17.2812 53.2337 17.3347 54.1618 17.4373 55.0787L14.4688 53.8918V49.3243ZM21.3425 46.4935L23.9806 47.8126L20.0938 49.756V46.8198C20.5044 46.6974 20.922 46.592 21.3425 46.4935ZM28.6128 50.1287L27.6622 52.0314H26.5878L25.6372 50.1287L27.125 49.3848L28.6128 50.1287ZM23.1214 51.3873L24.238 53.6204L22.3705 62.0256C20.9839 59.2089 20.2119 56.1024 20.1261 52.8849L23.1214 51.3873ZM24.4827 65.4807L26.8466 54.8439H27.4034L29.7673 65.4807C28.9855 66.5256 28.0939 67.4917 27.125 68.3945C26.1561 67.4917 25.2645 66.5256 24.4827 65.4807ZM31.8795 62.0256L30.012 53.6204L31.1286 51.3873L34.1239 52.8849C34.0395 56.101 33.2661 59.2089 31.8795 62.0256ZM32.8836 46.5048C33.3139 46.6356 33.733 46.7917 34.1562 46.9393V49.756L30.2694 47.8126L32.8836 46.5048ZM18.1672 58.7589C18.9772 61.771 20.33 64.6018 22.1933 67.1078C19.5777 65.7015 17.4345 63.4796 16.1422 60.7839L18.1672 58.7589ZM36.0828 58.7603L38.1078 60.7853C36.8211 63.467 34.6934 65.6776 32.0961 67.0853C33.9481 64.5864 35.277 61.7584 36.0828 58.7603ZM36.8084 55.0801C36.9111 54.1618 36.9688 53.2351 36.9688 52.2985V48.046C37.9306 48.4792 38.8672 48.9615 39.7812 49.4818V53.8918L36.8084 55.0801ZM38.375 35.1564C36.5412 35.1564 34.9775 33.9807 34.3967 32.3439H39.7812V35.1564H38.375ZM40.49 22.5831L42.3167 25.3224C42.4981 25.5953 42.5938 25.9103 42.5938 26.2379C42.5938 26.8665 42.245 27.4304 41.6825 27.7117L41.3366 27.8846C40.6489 28.2292 40.1581 28.8268 39.9303 29.5314H31.3438V30.9376C31.3438 34.8146 34.498 37.9689 38.375 37.9689H39.2202C38.382 39.6296 36.6777 40.7814 34.6948 40.7814C34.415 40.7814 34.1352 40.7575 33.8581 40.7124L25.9508 39.3948L25.4881 42.1693L31.3438 43.1439V44.131L27.125 46.2404L22.9062 44.131V33.047L18.5947 29.8126C17.772 29.1967 17.2812 28.2151 17.2812 27.1871C17.2812 25.3787 18.7536 23.9064 20.562 23.9064H22.9062V22.5001C22.9062 20.1742 24.7991 18.2814 27.125 18.2814H38.375C38.8531 18.2814 39.32 18.2349 39.7812 18.1689V20.2417C39.7812 21.0784 40.0259 21.887 40.49 22.5831ZM18.4709 36.9437C12.4423 32.7249 8.84375 25.8118 8.84375 18.4543C8.84375 15.6868 10.7183 13.2864 13.4042 12.6142L14.2227 12.4089L14.428 11.5904C15.0987 8.90589 17.4992 7.03135 20.2667 7.03135H29.2738C32.8611 7.03135 36.4527 6.32823 39.7812 4.98667V5.29323C39.7812 7.13261 39.3467 8.97479 38.5227 10.6215L41.0384 11.8801C41.8709 10.2151 42.3617 8.38698 42.5206 6.53214L45.4062 5.08792V8.4376C45.4062 12.3146 42.252 15.4689 38.375 15.4689H34.1562C32.6052 15.4689 31.3438 14.2074 31.3438 12.6564H28.5312C28.5312 13.6857 28.8294 14.6378 29.3131 15.4689H28.5312C26.9802 15.4689 25.7188 14.2074 25.7188 12.6564H22.9062C22.9062 13.9839 23.3886 15.1904 24.1606 16.1537C22.175 17.086 20.6802 18.8973 20.233 21.1037C17.0253 21.2739 14.4688 23.9373 14.4688 27.1871C14.4688 29.094 15.38 30.9165 16.9058 32.0612L20.0938 34.4532V38.0799L18.4709 36.9437ZM3.21875 69.3535C3.21875 62.2632 6.47281 55.7425 11.6562 51.3746V55.7959L15.5825 57.3667L12.8192 60.1299L13.1637 60.9906C15.0861 65.7943 19.2022 69.511 24.1775 70.9314L25.7188 71.3729V85.7814H11.6562V63.2814H8.84375V85.7814H3.21875V69.3535ZM45.4062 69.6376V63.2814H42.5938V85.7814H28.5312V71.3729L30.0739 70.9328C35.0478 69.5125 39.1639 65.7957 41.0863 60.992L41.4308 60.1314L38.6675 57.3681L42.5938 55.7959V51.2734C44.6848 52.7542 46.6213 54.4614 48.3439 56.3992L51.2675 59.687L49.6559 67.2048L52.4066 67.794L56.427 49.0304C56.5044 49.0079 56.5803 48.9854 56.6562 48.9587V53.4376C56.6562 55.7635 58.5491 57.6564 60.875 57.6564C61.37 57.6564 61.8397 57.5551 62.2812 57.3976V66.5692C62.2812 70.9595 58.7094 74.5314 54.3177 74.5314C52.5163 74.5314 50.75 73.9112 49.3423 72.7862L45.4062 69.6376ZM71.3389 58.6182C72.9842 59.3003 74.8152 59.1526 76.3184 58.2554L78.5516 60.4871C77.6614 61.9764 77.5067 63.8171 78.1944 65.4723C78.8778 67.1176 80.2798 68.3045 81.9688 68.7306V71.8862C80.2911 72.3095 78.8806 73.4978 78.1944 75.1501C77.5123 76.7968 77.6614 78.6264 78.5572 80.1296L76.3241 82.3628C74.8363 81.4726 72.9955 81.3179 71.3389 82.0056C69.6936 82.689 68.5067 84.091 68.0806 85.78H64.925C64.5017 84.1023 63.3134 82.6918 61.6611 82.0056C60.0087 81.3193 58.1778 81.4726 56.6802 82.367L54.447 80.1325C54.9547 79.2746 55.1923 78.2903 55.1966 77.2989C56.4566 77.1962 57.6547 76.877 58.7558 76.3764C60.6064 78.7346 63.4667 80.1564 66.5 80.1564C71.9281 80.1564 76.3438 75.7407 76.3438 70.3126C76.3438 64.8845 71.9281 60.4689 66.5 60.4689C66.0261 60.4689 65.5578 60.5209 65.0938 60.5884V54.5851C65.5353 54.7426 66.005 54.8439 66.5 54.8439C67.0386 54.8439 67.5491 54.7328 68.023 54.5485C68.3759 56.3542 69.5923 57.8926 71.3389 58.6182ZM66.5 52.0314C65.7252 52.0314 65.0938 51.3999 65.0938 50.6251V45.0001C65.0938 44.2253 65.7252 43.5939 66.5 43.5939C67.2748 43.5939 67.9062 44.2253 67.9062 45.0001V50.6251C67.9062 51.3999 67.2748 52.0314 66.5 52.0314ZM67.7333 40.7814H59.4688V29.5314H67.7333C69.9369 29.5314 71.9647 28.7017 73.5312 27.3306V42.9807C71.9647 41.611 69.9369 40.7814 67.7333 40.7814Z" fill="white"/>
<path d="M73.5312 7.03125H76.3438V9.84375H73.5312V7.03125Z" fill="white"/>
<path d="M67.9062 7.03125H70.7188V9.84375H67.9062V7.03125Z" fill="white"/>
<path d="M62.2812 7.03125H65.0938V9.84375H62.2812V7.03125Z" fill="white"/>
<path d="M59.4688 15.4688H62.2812V17.6991C62.2812 19.5708 63.8042 21.0938 65.6759 21.0938C66.583 21.0938 67.4352 20.7408 68.0764 20.0995L72.7072 15.4688H79.1562C80.7073 15.4688 81.9688 14.2073 81.9688 12.6562V4.21875C81.9688 2.66766 80.7073 1.40625 79.1562 1.40625H59.4688C57.9177 1.40625 56.6562 2.66766 56.6562 4.21875V12.6562C56.6562 14.2073 57.9177 15.4688 59.4688 15.4688ZM59.4688 4.21875H79.1562V12.6562H71.5428L66.088 18.1111C65.7533 18.4458 65.0938 18.1744 65.0938 17.6991V12.6562H59.4688V4.21875Z" fill="white"/>
<path d="M48.2188 21.0938H51.0312V23.9062H48.2188V21.0938Z" fill="white"/>
<path d="M53.8438 21.0938H56.6562V23.9062H53.8438V21.0938Z" fill="white"/>
<path d="M59.4688 21.0938H62.2812V23.9062H59.4688V21.0938Z" fill="white"/>
</svg>
