<svg width="80" height="80" viewBox="0 0 80 80" fill="none" xmlns="http://www.w3.org/2000/svg">
<path d="M71.2282 7.786H63.6466C62.998 7.786 62.4722 8.31345 62.4722 8.96404C62.4722 9.61463 62.998 10.1421 63.6466 10.1421H71.2282C74.7699 10.1421 77.6513 13.0325 77.6513 16.5853V53.3902H22.4737C21.8251 53.3902 21.2993 53.9177 21.2993 54.5683C21.2993 55.2189 21.8251 55.7463 22.4737 55.7463H77.5418C76.9882 58.7382 74.3687 61.0115 71.2282 61.0115H44.4804C43.8318 61.0115 43.306 61.5389 43.306 62.1895C43.306 62.8401 43.8318 63.3676 44.4804 63.3676H47.2705V68.0089C47.2705 68.2914 47.3718 68.5647 47.5559 68.7787L50.318 71.9886H29.8386L32.6006 68.7787C32.7848 68.5647 32.8861 68.2914 32.8861 68.0089V63.3676H39.4758C40.1243 63.3676 40.6501 62.8401 40.6501 62.1895C40.6501 61.5389 40.1243 61.0115 39.4758 61.0115H8.77178C5.63125 61.0115 3.01182 58.7382 2.45815 55.7463H17.4689C18.1174 55.7463 18.6432 55.2189 18.6432 54.5683C18.6432 53.9177 18.1174 53.3902 17.4689 53.3902H2.3487V16.5853C2.3487 13.0325 5.23009 10.1421 8.77178 10.1421H16.51C17.1585 10.1421 17.6843 9.61463 17.6843 8.96404C17.6843 8.31345 17.1585 7.786 16.51 7.786H8.77178C3.93502 7.786 0 11.7334 0 16.5853V54.5683C0 59.4202 3.93502 63.3676 8.77178 63.3676H30.5374V67.5706L26.7358 71.9884H25.1706C23.297 71.9884 21.7726 73.5175 21.7726 75.397V76.5914C21.7726 78.4709 23.297 80 25.1706 80H54.8292C56.7029 80 58.2272 78.4709 58.2272 76.5914V75.397C58.2272 73.5175 56.7029 71.9884 54.8292 71.9884H53.4207L49.619 67.5706V63.3676H71.2281C76.0648 63.3676 79.9998 59.4202 79.9998 54.5683V16.5853C80 11.7334 76.065 7.786 71.2282 7.786ZM55.8786 75.397V76.5914C55.8786 77.1718 55.408 77.6439 54.8294 77.6439H25.1706C24.592 77.6439 24.1213 77.1718 24.1213 76.5914V75.397C24.1213 74.8167 24.592 74.3445 25.1706 74.3445H54.8292C55.4078 74.3445 55.8786 74.8167 55.8786 75.397Z" fill="#3A5666"/>
<path d="M40.0783 50.2017C45.4995 50.2017 50.6584 48.4906 54.9972 45.2535C55.5177 44.8652 55.6258 44.1273 55.2387 43.6052C54.8516 43.0832 54.1162 42.9747 53.5955 43.363C49.6649 46.2957 44.9908 47.8458 40.0783 47.8458C27.576 47.8458 17.4047 37.6426 17.4047 25.1011C17.4047 12.5596 27.576 2.35623 40.0783 2.35623C52.5806 2.35623 62.7519 12.5594 62.7519 25.1011C62.7519 25.2813 62.7492 25.4608 62.7451 25.6398C62.7301 26.2903 63.2435 26.8298 63.8919 26.8449C64.5416 26.8626 65.0783 26.3449 65.0932 25.6945C65.0978 25.4972 65.1006 25.2993 65.1006 25.1009C65.1006 11.2603 53.8757 0 40.0783 0C26.2809 0 15.056 11.2604 15.056 25.1011C15.056 38.9416 26.2809 50.2017 40.0783 50.2017Z" fill="#3A5666"/>
<path d="M40 8.14193C49.322 8.14193 56.906 15.7498 56.906 25.1011C56.906 25.5385 56.8891 25.981 56.8559 26.4161C56.8062 27.0648 57.2902 27.631 57.9369 27.6808C58.5837 27.7319 59.148 27.2449 59.1977 26.5964C59.2356 26.1016 59.2547 25.5985 59.2547 25.1011C59.2547 14.4507 50.6171 5.78586 40 5.78586C29.3829 5.78586 20.7453 14.4507 20.7453 25.1011C20.7453 27.847 21.3088 30.5012 22.4202 32.99C22.6157 33.4274 23.0439 33.6868 23.4927 33.6868C23.653 33.6868 23.8162 33.6536 23.9721 33.5836C24.564 33.3175 24.8289 32.6206 24.5637 32.0268C23.5883 29.8431 23.0939 27.5129 23.0939 25.1012C23.094 15.7498 30.678 8.14193 40 8.14193Z" fill="#3A5666"/>
<path d="M40 44.416C44.4843 44.416 48.8509 42.8352 52.2956 39.9649C52.7947 39.5493 52.8631 38.8065 52.4486 38.3059C52.0343 37.8053 51.2938 37.7369 50.7948 38.1525C47.7709 40.6722 43.9372 42.0598 40 42.0598C35.0035 42.0598 30.2889 39.8583 27.0652 36.0196C26.6475 35.522 25.9065 35.4584 25.4105 35.8776C24.9144 36.2967 24.851 37.0399 25.2689 37.5375C28.94 41.9091 34.3092 44.416 40 44.416Z" fill="#3A5666"/>
<path d="M40.0783 11.6143C32.665 11.6143 26.6339 17.6644 26.6339 25.1009C26.6339 32.5375 32.665 38.5874 40.0783 38.5874C42.2396 38.5874 44.3916 38.0574 46.3017 37.0547C46.8764 36.7531 47.0984 36.0413 46.7978 35.4648C46.4971 34.8884 45.7872 34.6655 45.2129 34.9672C43.6148 35.806 41.8874 36.2313 40.0783 36.2313C33.9601 36.2313 28.9826 31.2382 28.9826 25.1009C28.9826 18.9635 33.9601 13.9704 40.0783 13.9704C45.614 13.9704 50.3404 18.1158 51.0721 23.6131C51.1579 24.2579 51.7492 24.7104 52.3916 24.6248C53.0345 24.5388 53.4861 23.9461 53.4001 23.3012C52.5131 16.6387 46.786 11.6143 40.0783 11.6143Z" fill="#3A5666"/>
<path d="M75.936 33.7865C75.8337 33.2025 75.4739 32.7112 74.949 32.4385L67.5976 28.6195C66.9686 28.2926 66.2197 28.3459 65.6425 28.758L61.0695 32.0262L48.0658 25.2707C48.067 25.2145 48.0713 25.1567 48.0713 25.1011C48.0713 20.6799 44.4856 17.0829 40.0782 17.0829C35.6707 17.0829 32.085 20.6799 32.085 25.1011C32.085 29.5223 35.6707 33.1193 40.0782 33.1193C41.8004 33.1193 43.4576 32.5656 44.8275 31.5482L57.8292 38.3026L57.8071 43.9354C57.8045 44.6458 58.1934 45.2901 58.8222 45.6168L66.1737 49.4358C66.4466 49.5777 66.7417 49.6487 67.0375 49.6487C67.3106 49.6487 67.584 49.588 67.8406 49.4665C68.3752 49.2133 68.7525 48.7354 68.8761 48.1557L69.733 44.1337C69.7935 44.1369 69.8541 44.1392 69.9147 44.1392C70.2732 44.1392 70.6335 44.0836 70.9851 43.9716C71.8821 43.6859 72.6143 43.0667 73.0471 42.2285C73.4799 41.3902 73.5613 40.4331 73.2763 39.5334C73.1459 39.1213 72.9426 38.7462 72.6836 38.4163L75.4658 35.3911C75.8669 34.9554 76.0382 34.3705 75.936 33.7865ZM40.0783 30.7632C36.966 30.7632 34.4339 28.2232 34.4339 25.1011C34.4339 21.979 36.966 19.439 40.0783 19.439C42.8141 19.439 45.1006 21.4018 45.6142 23.997L41.6985 21.9628C40.8629 21.5288 39.9086 21.4471 39.0118 21.7329C38.115 22.0186 37.3828 22.6377 36.95 23.476C36.0567 25.2065 36.7333 27.3433 38.4582 28.2394L42.3749 30.2741C41.6588 30.594 40.8784 30.7632 40.0783 30.7632ZM66.7079 47.0601L60.1571 43.6569L60.1734 39.5202L67.5032 43.3281L66.7079 47.0601ZM70.9617 41.1451C70.8175 41.4246 70.5734 41.6308 70.2745 41.7261C69.9756 41.8215 69.6576 41.7943 69.379 41.6495L39.5383 26.147C38.9633 25.8483 38.7378 25.136 39.0356 24.5592C39.2442 24.1551 39.6552 23.9231 40.0804 23.9231C40.262 23.9231 40.4463 23.9655 40.6185 24.0548L70.4593 39.5573C71.0339 39.8561 71.2595 40.5684 70.9617 41.1451ZM70.7435 37.0519L63.4136 33.244L66.7721 30.8438L73.323 34.247L70.7435 37.0519Z" fill="#3A5666"/>
</svg>
