<svg width="80" height="68" viewBox="0 0 80 68" fill="none" xmlns="http://www.w3.org/2000/svg">
<path d="M64.4263 33.7666H44.1138C43.4666 33.7666 42.9419 34.289 42.9419 34.9336C42.9419 35.5783 43.4666 36.1007 44.1138 36.1007H64.4263C65.0734 36.1007 65.5981 35.5783 65.5981 34.9336C65.5981 34.289 65.0734 33.7666 64.4263 33.7666Z" fill="#3A5666"/>
<path d="M64.4263 39.8352H44.1138C43.4666 39.8352 42.9419 40.3576 42.9419 41.0023C42.9419 41.647 43.4666 42.1693 44.1138 42.1693H64.4263C65.0734 42.1693 65.5981 41.647 65.5981 41.0023C65.5981 40.3576 65.0734 39.8352 64.4263 39.8352Z" fill="#3A5666"/>
<path d="M64.4263 45.9039H44.1138C43.4666 45.9039 42.9419 46.4263 42.9419 47.0709C42.9419 47.7156 43.4666 48.238 44.1138 48.238H64.4263C65.0734 48.238 65.5981 47.7156 65.5981 47.0709C65.5981 46.4263 65.0734 45.9039 64.4263 45.9039Z" fill="#3A5666"/>
<path d="M68.4888 19.233H34.7388C34.0916 19.233 33.5669 19.7553 33.5669 20.4V28.3518L32.1211 30.802C31.8188 31.3141 31.1545 31.4859 30.6402 31.1851L25.2797 28.0481C23.7287 27.1403 21.9159 26.889 20.1745 27.3388C18.4334 27.7893 16.9725 28.8879 16.0611 30.4324L8.94219 42.4974C8.17078 43.8045 8.36469 45.4145 9.30703 46.5044L5.64656 52.708C5.38031 53.1591 5.30625 53.6862 5.43844 54.1927C5.57047 54.6991 5.89266 55.1239 6.34547 55.3889L19.7942 63.2596C20.1064 63.4423 20.4487 63.529 20.787 63.529C21.4617 63.529 22.1198 63.1832 22.4859 62.5633L26.0892 56.4567C27.0205 56.8437 28.0098 57.0414 29.01 57.0414C29.6556 57.0414 30.3059 56.9593 30.9473 56.7934C32.0867 56.4987 33.1195 55.9586 33.9894 55.2193C34.1925 55.3878 34.4538 55.4893 34.7388 55.4893H68.4888C69.1359 55.4893 69.6606 54.9669 69.6606 54.3222V20.4C69.6606 19.7553 69.1359 19.233 68.4888 19.233ZM35.9109 21.5671H37.7509C37.4784 21.8291 37.2392 22.1288 37.042 22.4631L35.9109 24.3798V21.5671ZM20.6566 61.0567L7.85828 53.5667L11.2338 47.8462L24.032 55.336L20.6566 61.0567ZM33.7148 51.9044C33.7127 51.9085 33.71 51.9122 33.7078 51.9162L33.6028 52.0942C32.8839 53.3125 31.7319 54.1789 30.3586 54.5343C28.9853 54.8891 27.5553 54.6908 26.332 53.9749L26.2303 53.9155C26.2305 53.9155 26.2302 53.9155 26.2303 53.9155L11.4108 45.2426C11.4109 45.2427 11.4105 45.2424 11.4108 45.2426L11.3633 45.2147C10.828 44.9015 10.6483 44.2131 10.963 43.68L18.0823 31.6149C18.6766 30.6078 19.6289 29.8915 20.7642 29.5979C21.8994 29.3038 23.0816 29.4685 24.0927 30.0602L29.4531 33.1972C30.2422 33.6592 31.1644 33.7875 32.0498 33.5579C32.9355 33.3289 33.6786 32.7701 34.1422 31.9844L39.0628 23.6455C39.3144 23.2191 39.7175 22.9159 40.1981 22.7915C40.6784 22.6672 41.1788 22.7369 41.607 22.9874C42.4897 23.5041 42.7862 24.6406 42.2661 25.5241L34.6619 38.5378C34.3378 39.0922 34.4038 39.7912 34.8256 40.2767C35.2458 40.7602 35.9278 40.9247 36.5233 40.6861C37.0031 40.4935 37.4377 40.5333 37.8919 40.8114C38.8514 41.3989 39.1539 42.6872 38.5662 43.6829L33.7148 51.9044ZM42.5225 25.7011C42.5188 25.7074 42.4559 25.6597 42.3934 25.6121L42.5225 25.7011ZM67.3172 53.1552H35.9109V52.7893L40.5867 44.8652C41.8161 42.7817 41.1578 40.0712 39.1194 38.8229C38.6109 38.5114 38.0794 38.3221 37.538 38.2562L41.8344 30.9035H67.3172V53.1552ZM67.3172 28.5694H43.1983L44.2898 26.7013C45.2909 25.0007 44.9452 22.8776 43.5772 21.5671H67.3172V28.5694Z" fill="#3A5666"/>
<path d="M78.8281 22.8223C78.1809 22.8223 77.6562 23.3447 77.6562 23.9894V64.9657C77.6562 65.3517 77.3408 65.6659 76.9531 65.6659H3.04688C2.65922 65.6659 2.34375 65.3517 2.34375 64.9657V58.9359C2.34375 58.2912 1.81906 57.7689 1.17188 57.7689C0.524687 57.7689 0 58.2912 0 58.9359V64.9657C0 66.6388 1.36688 68 3.04688 68H76.9531C78.6331 68 80 66.6388 80 64.9657V23.9894C80 23.3447 79.4753 22.8223 78.8281 22.8223Z" fill="#3A5666"/>
<path d="M76.9531 0H40C39.3528 0 38.8281 0.522371 38.8281 1.16705C38.8281 1.81173 39.3528 2.3341 40 2.3341H76.9531C77.3408 2.3341 77.6562 2.64826 77.6562 3.03432V12.4485H30.625V2.3341H34.948C35.5952 2.3341 36.1198 1.81173 36.1198 1.16705C36.1198 0.522371 35.5952 0 34.948 0H3.04688C1.40734 0 0.0698437 1.29729 0.00609375 2.91466L0 53.8398C0 54.4845 0.524687 55.0069 1.17188 55.0069C1.81906 55.0069 2.34375 54.4845 2.34375 53.8398V14.7826H77.6562V19.0423C77.6562 19.687 78.1809 20.2094 78.8281 20.2094C79.4753 20.2094 80 19.687 80 19.0423V3.03432C80 1.36124 78.6331 0 76.9531 0ZM28.2812 12.4485H2.34375V3.03432C2.34375 2.64826 2.65922 2.3341 3.04688 2.3341H28.2812V12.4485Z" fill="#3A5666"/>
<path d="M7.34375 3.89016C5.40516 3.89016 3.82812 5.46085 3.82812 7.3913C3.82812 9.32176 5.40516 10.8924 7.34375 10.8924C9.28234 10.8924 10.8594 9.32176 10.8594 7.3913C10.8594 5.46085 9.28234 3.89016 7.34375 3.89016ZM7.34375 8.55835C6.6975 8.55835 6.17188 8.03489 6.17188 7.3913C6.17188 6.74771 6.6975 6.22426 7.34375 6.22426C7.99 6.22426 8.51562 6.74771 8.51562 7.3913C8.51562 8.03489 7.99 8.55835 7.34375 8.55835Z" fill="#3A5666"/>
<path d="M15.4688 3.89016C13.5302 3.89016 11.9531 5.46085 11.9531 7.3913C11.9531 9.32176 13.5302 10.8924 15.4688 10.8924C17.4073 10.8924 18.9844 9.32176 18.9844 7.3913C18.9844 5.46085 17.4073 3.89016 15.4688 3.89016ZM15.4688 8.55835C14.8225 8.55835 14.2969 8.03489 14.2969 7.3913C14.2969 6.74771 14.8225 6.22426 15.4688 6.22426C16.115 6.22426 16.6406 6.74771 16.6406 7.3913C16.6406 8.03489 16.115 8.55835 15.4688 8.55835Z" fill="#3A5666"/>
<path d="M23.4375 3.89016C21.4989 3.89016 19.9219 5.46085 19.9219 7.3913C19.9219 9.32176 21.4989 10.8924 23.4375 10.8924C25.3761 10.8924 26.9531 9.32176 26.9531 7.3913C26.9531 5.46085 25.3761 3.89016 23.4375 3.89016ZM23.4375 8.55835C22.7913 8.55835 22.2656 8.03489 22.2656 7.3913C22.2656 6.74771 22.7913 6.22426 23.4375 6.22426C24.0837 6.22426 24.6094 6.74771 24.6094 7.3913C24.6094 8.03489 24.0837 8.55835 23.4375 8.55835Z" fill="#3A5666"/>
</svg>
